<?xml version="1.0" standalone="no"?><!DOCTYPE svg PUBLIC "-//W3C//DTD SVG 1.1//EN" "http://www.w3.org/Graphics/SVG/1.1/DTD/svg11.dtd"><svg t="1540406702371" class="icon" style="" viewBox="0 0 1024 1024" version="1.1" xmlns="http://www.w3.org/2000/svg" p-id="3839" xmlns:xlink="http://www.w3.org/1999/xlink" width="128" height="128"><defs><style type="text/css"></style></defs><path d="M836.9333333333334 937.3333333333329h-689.6c-64.736 0-117.872-50.688-121.776-114.464-0.4-6.8 6.208-48.144 10.704-58.016L240.00533333333334 86.83733333333333a16 16 0 0 1 15.328-11.392H957.3333333333334a16.032 16.032 0 0 1 15.568 19.728l-148 617.904a16 16 0 0 1-15.568 12.256H147.33333333333334a90.096 90.096 0 0 0-81.088 50.976L58.13333333333333 803.2853333333329a90.08 90.08 0 0 0 89.2 102.048h677.104l149.376-595.888a16 16 0 0 1 31.04 7.776l-152.4 608a16 16 0 0 1-15.52 12.112zM267.2373333333333 107.44533333333328L86.24533333333333 709.749333333333A121.328 121.328 0 0 1 147.33333333333334 693.3333333333329h649.376l140.336-585.888H267.2373333333333z" fill="#333333" p-id="3840"></path><path d="M747.3333333333334 829.3333333333329H159.33333333333334a16 16 0 1 1 0-32h588a16 16 0 1 1 0 32z" fill="#333333" p-id="3841"></path></svg>