<?xml version="1.0" standalone="no"?><!DOCTYPE svg PUBLIC "-//W3C//DTD SVG 1.1//EN" "http://www.w3.org/Graphics/SVG/1.1/DTD/svg11.dtd"><svg t="1539531606565" class="icon" style="" viewBox="0 0 1024 1024" version="1.1" xmlns="http://www.w3.org/2000/svg" p-id="1280" xmlns:xlink="http://www.w3.org/1999/xlink" width="128" height="128"><defs><style type="text/css"></style></defs><path d="M583.04 903.68H312.8c-79.68 0-144.96-64.8-144.96-144.96v-213.6H86.72c-10.08 0-19.2-6.24-22.56-15.36-3.36-9.6-0.96-20.16 6.72-26.88l425.28-376.32c9.12-8.16 23.04-8.16 32.16 0L953.6 502.88c7.68 6.72 10.08 17.28 6.72 26.88-3.36 9.6-12.48 15.36-22.56 15.36h-81.12v213.6c0 49.92-25.44 96-67.68 122.88-11.52 7.2-26.4 3.84-33.12-7.68-7.2-11.04-3.84-26.4 7.68-33.12a96 96 0 0 0 45.12-81.6V521.6c0-13.44 11.04-24 24-24h41.76L512 176.96 150.08 497.12h41.76c13.44 0 24 11.04 24 24v237.6c0 53.28 43.2 96.48 96.48 96.48h270.24c13.44 0 24 11.04 24 24 0.48 13.44-10.08 24.48-23.52 24.48z m-0.48 0c-13.44 0-24-11.04-24-24 0-13.44 11.04-24 24-24 20.16 0 36-16.32 36-36v-175.2c0-20.16-16.32-36-36-36H441.44c-20.16 0-36 16.32-36 36v112.8c0 13.44-11.04 24-24 24s-24-11.04-24-24v-112.8c0-46.56 37.92-84.48 84.48-84.48h141.12c46.56 0 84.48 37.92 84.48 84.48V819.2c-0.48 46.56-38.4 84.48-84.96 84.48z" p-id="1281" fill="#2ca9e1"></path></svg>