<?xml version="1.0" standalone="no"?><!DOCTYPE svg PUBLIC "-//W3C//DTD SVG 1.1//EN" "http://www.w3.org/Graphics/SVG/1.1/DTD/svg11.dtd"><svg t="1540409291362" class="icon" style="" viewBox="0 0 1024 1024" version="1.1" xmlns="http://www.w3.org/2000/svg" p-id="1439" xmlns:xlink="http://www.w3.org/1999/xlink" width="128" height="128"><defs><style type="text/css"></style></defs><path d="M626.9888 556.21546667c87.0912-42.6432 147.2064-131.8656 147.2064-235.3536C774.1952 176.05546667 656.8064 58.66666667 512 58.66666667c-144.8064 0-262.1952 117.3888-262.1952 262.1952 0 103.488 60.1152 192.7296 147.2064 235.3536-144.5184 46.2912-253.3632 176.928-264.8064 335.2128-1.152 16.0512 10.9056 29.9904 26.9568 31.1616 16.1664 1.1328 29.9904-10.9248 31.1616-26.9568C202.4384 727.76746667 343.7504 596.26666667 512 596.26666667s309.5616 131.5008 321.696 299.3664c1.1136 15.3408 13.9008 27.0336 29.0304 27.0336 0.7104 0 1.4208-0.0192 2.1312-0.0768 16.0512-1.152 28.1088-15.1104 26.9568-31.1616C880.3712 733.14346667 771.5264 602.50666667 626.9888 556.21546667zM308.0768 320.86186667c0-112.6272 91.296-203.9232 203.9232-203.9232 112.6272 0 203.9232 91.296 203.9232 203.9232S624.6272 524.78506667 512 524.78506667C399.3728 524.78506667 308.0768 433.48906667 308.0768 320.86186667z" p-id="1440"></path></svg>