<?xml version="1.0" standalone="no"?><!DOCTYPE svg PUBLIC "-//W3C//DTD SVG 1.1//EN" "http://www.w3.org/Graphics/SVG/1.1/DTD/svg11.dtd"><svg t="1539531681206" class="icon" style="" viewBox="0 0 1024 1024" version="1.1" xmlns="http://www.w3.org/2000/svg" p-id="1856" xmlns:xlink="http://www.w3.org/1999/xlink" width="128" height="128"><defs><style type="text/css"></style></defs><path d="M237.78125 933.875C157.2414769 933.875 90.125 868.67613613 90.125 786.21875s65.19886387-147.65625 147.65625-147.65625c32.59943152 0 63.28125 11.50568152 90.12784075 30.68181848l7.67045463 5.75284076V201.34659075c0-28.76420462 23.01136387-51.77556848 49.85795462-51.77556765l492.82670462-57.52840923h3.8352269C908.9460231 90.125 933.875 113.13636387 933.875 141.90056848v554.19034076c0 40.26988613-15.34090925 76.70454538-44.10511387 103.55113614-26.84659075 26.84659075-65.19886387 42.1875-103.55113613 42.1875-80.5397731 0-147.65625-65.19886387-147.65625-147.65625 0-80.5397731 65.19886387-147.65625 147.65625-147.65625 32.59943152 0 65.19886387 11.50568152 90.12784075 30.68181849l7.67045463 5.75284075V325.9914769l-498.57954538 53.69318235v406.53409075c-1.91761387 82.45738613-67.1164769 147.65625-147.65625 147.65625z m0-243.53693152c-53.69318152 0-97.79829538 44.10511387-97.79829538 97.79829539s44.10511387 97.79829538 97.79829538 97.79829538 97.79829538-44.10511387 97.79829538-97.79829538c-1.91761387-55.61079538-44.10511387-97.79829538-97.79829538-97.79829539z m548.4375-92.04545461c-53.69318152 0-97.79829538 44.10511387-97.79829538 97.79829538s44.10511387 97.79829538 97.79829538 97.79829537 97.79829538-44.10511387 97.79829538-97.79829537-44.10511387-97.79829538-97.79829538-97.79829538z m-402.69886387-268.46590925l498.57954539-53.69318152V139.98295462l-492.82670462 57.52840925h-5.75284077v132.31534075z" p-id="1857" fill="#2ca9e1"></path></svg>