<?xml version="1.0" standalone="no"?><!DOCTYPE svg PUBLIC "-//W3C//DTD SVG 1.1//EN" "http://www.w3.org/Graphics/SVG/1.1/DTD/svg11.dtd"><svg t="1540408506725" class="icon" style="" viewBox="0 0 1781 1024" version="1.1" xmlns="http://www.w3.org/2000/svg" p-id="1410" xmlns:xlink="http://www.w3.org/1999/xlink" width="222.625" height="128"><defs><style type="text/css"></style></defs><path d="M1603.9780938 345.36453703c-14.06911098 1.95914924-23.93869839 14.97248771-21.97954915 29.06673615 4.56244538 32.8310678 6.8546657 66.43196966 6.85466569 99.87890476 0 397.84397933-323.68067571 721.52465501-721.52465498 721.52465503s-721.52308394-323.67910461-721.52308392-721.52308394c0-397.84240821 323.68067571-721.52308394 721.52465491-721.52308395 85.55213503 0 169.01629146 14.53258254 248.07511154 43.23953908 13.37626029 4.89551646 28.16650157-2.03613265 33.008601-15.41082183 4.84524156-13.37311812-2.06127009-28.16493049-15.43438821-33.0337384-84.70060425-30.74308918-174.09405435-46.33301527-265.6493243-46.3330153-426.26342637 0-773.06112039 346.79455184-773.06112041 773.0611204 0 426.26813965 346.79612294 773.06269149 773.06269151 773.06269149s773.06269149-346.79455184 773.06269151-773.06269149c0-35.79257245-2.47446676-71.79095769-7.3448458-106.93938324-1.9340118-14.12095693-15.17672944-24.01882398-29.06987825-22.00782876z" fill="" p-id="1411"></path><path d="M1141.12398126 458.95748645c-14.12095693-0.43990521-35.75486633 12.90650437-36.32045865 27.13272433-0.15553791 3.89158994-0.35506635 7.76118464-0.79811373 11.67319874-11.32441674 99.9841678-102.44606582 213.22676414-236.67528253 213.22676414-117.51910332 0-236.43647676-96.36437646-235.27858331-238.44904307 1.05734359-129.58664564 116.501037-230.87324704 235.27858331-234.97064976 15.42496165-0.53259952 30.77136879 2.70855915 46.04550586 4.09740272 20.76666767 1.88687916 31.86641854-17.66062272 32.72109156-36.48856534 1.25687199-27.68260588-25.80986655-40.6456695-39.82870269-43.19554851-16.59385262-3.11390037-35.68416724-4.89551646-55.19082073-4.89551648-170.48997387 0-303.84409332 146.71781103-303.84409327 317.22978014s149.58347918 319.71838671 320.09701927 319.71838674c185.9809213 0 305.26278763-131.3509797 319.71838683-291.55345623 0.43676301-4.74312071 0.77454738-9.50980779 0.95365164-14.30163229 0.59072986-14.22464889-19.82558477-28.65353947-34.05023366-29.21756076h-12.8279499z" fill="" p-id="1412"></path><path d="M867.33012638 371.23724719c-56.84517849 0-103.07450182 46.22932331-103.07450176 103.07450184 0 56.84674958 46.22932331 103.07607294 103.07450173 103.07607293s103.07450182-46.22932331 103.0745019-103.07607293c0-56.8436074-46.22932331-103.07450182-103.0745019-103.07450186zM867.33012638 525.84978548c-28.42416031 0-51.53803645-23.11387613-51.53803646-51.53803645 0-28.42101815 23.11387613-51.53646539 51.53803643-51.53646535 28.42416031 0 51.53803645 23.11387613 51.53803654 51.53646535-0.00157109 28.42416031-23.1170183 51.53803645-51.53803654 51.53803645zM1713.37466181-355.95904273c-4.3236397-3.40455203-9.84759213-5.46110886-15.85229807-5.46110886-2.22309235 0-4.37862785 0.28122511-6.43675579 0.81068242l-412.1204742 103.03522462c-11.29142387 2.90180322-19.50351129 12.98977213-19.5066534 24.99604194v463.83447272c0 42.62210069-34.6865251 77.3070547-77.30705471 77.30705469-42.62210069 0-77.3070547-34.68338289-77.30705475-77.30705469 0-42.62052961 34.68338289-77.3070547 77.30705475-77.30705473 14.22307779 0 25.76744715-11.54279826 25.76744714-25.76744712 0-14.22464889-11.54436932-25.76744715-25.76744714-25.76744712-71.04468996 0-128.84509115 57.79883013-128.84509114 128.84194897s57.80040123 128.84509115 128.84509114 128.84509111 128.84194898-57.80040123 128.84194897-128.84509111v-330.02002387l315.77023752-83.12951424c13.78788587-3.60879372 21.97954914-17.72975068 18.37232653-31.46421949-3.60408045-13.76117732-17.72817959-22.05810364-31.46421944-18.37389761l-302.67834456 79.67625842v-60.40055517l360.76311297-90.1915638v430.82744284c0 42.62210069-34.68338289 77.3070547-77.3070547 77.30705468s-77.3070547-34.68338289-77.30705469-77.30705468 34.68338289-77.3070547 77.30705469-77.30705468c14.22464889 0 25.76744715-11.54436932 25.76744719-25.76744713 0.00157109-14.22464889-11.54279826-25.77058932-25.76744719-25.77058935-71.04626103 0-128.84666225 57.80040123-128.84666221 128.84509116s57.80040123 128.84509115 128.84666221 128.84509114c71.04468996 0 128.84509115-57.80040123 128.84509113-128.84509114v-463.83761489c0-7.93557559-3.65749754-15.43438819-9.92143332-20.30633831z" fill="" p-id="1413"></path></svg>